<?xml version="1.0" encoding="UTF-8" standalone="no"?>
<svg
   viewBox="0 0 254.26889 256.30601"
   id="svg3466"
   version="1.1"
   inkscape:version="1.2.1 (9c6d41e410, 2022-07-14, custom)"
   sodipodi:docname="tami_sticker_squere.svg"
   width="271.22015"
   height="273.3931"
   xmlns:inkscape="http://www.inkscape.org/namespaces/inkscape"
   xmlns:sodipodi="http://sodipodi.sourceforge.net/DTD/sodipodi-0.dtd"
   xmlns="http://www.w3.org/2000/svg"
   xmlns:svg="http://www.w3.org/2000/svg"
   xmlns:rdf="http://www.w3.org/1999/02/22-rdf-syntax-ns#"
   xmlns:cc="http://creativecommons.org/ns#"
   xmlns:dc="http://purl.org/dc/elements/1.1/">
  <metadata
     id="metadata3556">
    <rdf:RDF>
      <cc:Work
         rdf:about="">
        <dc:format>image/svg+xml</dc:format>
        <dc:type
           rdf:resource="http://purl.org/dc/dcmitype/StillImage" />
      </cc:Work>
    </rdf:RDF>
  </metadata>
  <defs
     id="defs3554" />
  <sodipodi:namedview
     pagecolor="#ffffff"
     bordercolor="#666666"
     borderopacity="1"
     objecttolerance="10"
     gridtolerance="10"
     guidetolerance="10"
     inkscape:pageopacity="0"
     inkscape:pageshadow="2"
     inkscape:window-width="1362"
     inkscape:window-height="709"
     id="namedview3552"
     showgrid="false"
     showguides="true"
     inkscape:guide-bbox="true"
     fit-margin-top="0"
     fit-margin-left="0"
     fit-margin-right="0"
     fit-margin-bottom="0"
     units="mm"
     inkscape:zoom="0.46324129"
     inkscape:cx="216.94957"
     inkscape:cy="47.491449"
     inkscape:window-x="0"
     inkscape:window-y="57"
     inkscape:window-maximized="1"
     inkscape:current-layer="layer2"
     inkscape:showpageshadow="2"
     inkscape:pagecheckerboard="0"
     inkscape:deskcolor="#d1d1d1"
     inkscape:document-units="mm" />
  <g
     inkscape:groupmode="layer"
     id="layer1"
     inkscape:label="bwd"
     style="display:inline"
     transform="translate(-11.205727,17.678782)">
    <rect
       style="opacity:1;fill:#000000;fill-opacity:1;stroke:none;stroke-width:4.34696;stroke-miterlimit:4;stroke-dasharray:4.34696, 4.34696;stroke-dashoffset:0;stroke-opacity:1"
       id="rect4588"
       width="253.12498"
       height="253.12498"
       x="11.777677"
       y="-16.088266" />
  </g>
  <g
     inkscape:groupmode="layer"
     id="layer2"
     inkscape:label="logo"
     style="display:inline"
     transform="translate(-11.205727,17.678782)">
    <g
       id="g3468"
       style="fill:#ffffff"
       transform="translate(0.5719495,1.5905157)">
      <g
         id="g3470"
         style="fill:#ffffff"
         transform="translate(-2,2)">
        <path
           inkscape:connector-curvature="0"
           d="m 40.187,157.033 v 1.9 h 3.965 v 7.594 h 1.983 v -7.594 h 3.968 v -1.9 h -9.916"
           id="path3472"
           style="fill:#ffffff" />
        <path
           inkscape:connector-curvature="0"
           d="m 52.077,157.033 v 9.494 h 9.915 v -1.9 h -7.934 v -1.9 h 3.97 v -1.893 h -3.97 v -1.9 h 7.934 v -1.9 h -9.916"
           id="path3474"
           style="fill:#ffffff" />
        <path
           inkscape:connector-curvature="0"
           d="m 63.97,157.034 v 9.493 h 9.918 v -1.9 h -7.935 v -7.594 H 63.97"
           id="path3476"
           style="fill:#ffffff" />
        <path
           inkscape:connector-curvature="0"
           d="m 76.307,157.033 v 9.494 h 1.982 v -3.8 h 5.95 v 3.8 h 1.985 v -9.494 h -9.918 z m 1.982,1.9 h 5.952 v 1.9 H 78.29 v -1.9 z"
           id="path3478"
           style="fill:#ffffff" />
        <path
           inkscape:connector-curvature="0"
           d="m 88.2,157.033 v 5.695 h 1.984 v -5.695 H 88.2"
           id="path3480"
           style="fill:#ffffff" />
        <path
           inkscape:connector-curvature="0"
           d="m 90.184,162.728 v 1.9 h 1.982 v -1.9 h -1.982"
           id="path3482"
           style="fill:#ffffff" />
        <path
           inkscape:connector-curvature="0"
           d="m 92.166,164.628 v 1.9 h 1.983 v -1.9 h -1.985"
           id="path3484"
           style="fill:#ffffff" />
        <path
           inkscape:connector-curvature="0"
           d="m 94.148,164.628 h 1.98 v -1.9 h -1.98 v 1.9"
           id="path3486"
           style="fill:#ffffff" />
        <path
           inkscape:connector-curvature="0"
           d="m 96.128,162.728 h 1.99 v -5.695 h -1.99 v 5.695"
           id="path3488"
           style="fill:#ffffff" />
        <path
           inkscape:connector-curvature="0"
           d="m 100.09,157.033 v 9.494 h 1.982 v -9.494 h -1.982"
           id="path3490"
           style="fill:#ffffff" />
        <path
           inkscape:connector-curvature="0"
           d="m 104.04,157.033 v 5.695 h 1.982 v -5.695 h -1.983"
           id="path3492"
           style="fill:#ffffff" />
        <path
           inkscape:connector-curvature="0"
           d="m 106.023,162.728 v 1.9 h 1.988 v -1.9 h -1.987"
           id="path3494"
           style="fill:#ffffff" />
        <path
           inkscape:connector-curvature="0"
           d="m 108.01,164.628 v 1.9 h 1.983 v -1.9 h -1.982"
           id="path3496"
           style="fill:#ffffff" />
        <path
           inkscape:connector-curvature="0"
           d="m 109.993,164.628 h 1.983 v -1.9 h -1.983 v 1.9"
           id="path3498"
           style="fill:#ffffff" />
        <path
           inkscape:connector-curvature="0"
           d="m 111.976,162.728 h 1.98 v -5.695 h -1.98 v 5.695"
           id="path3500"
           style="fill:#ffffff" />
      </g>
      <g
         id="g3502"
         style="fill:#ffffff"
         transform="translate(2.7070318,2)">
        <path
           inkscape:connector-curvature="0"
           d="m 125.902,157.038 v 9.493 h 1.986 v -3.797 h 5.947 v 3.8 h 1.982 v -9.493 h -1.983 v 3.798 h -5.948 v -3.8 H 125.9"
           id="path3504"
           style="fill:#ffffff" />
        <path
           inkscape:connector-curvature="0"
           d="m 137.793,157.04 v 9.49 h 1.98 v -3.798 h 5.954 v 3.8 h 1.984 v -9.493 h -9.917 z m 1.986,1.9 h 5.95 v 1.898 h -5.95 v -1.9 z"
           id="path3506"
           style="fill:#ffffff" />
        <path
           inkscape:connector-curvature="0"
           d="m 149.683,157.04 v 9.49 h 9.918 v -1.897 h -7.93 v -5.694 h 7.93 v -1.9 h -9.917"
           id="path3508"
           style="fill:#ffffff" />
        <path
           inkscape:connector-curvature="0"
           d="m 161.578,157.04 v 9.49 h 1.983 v -3.8 h 3.966 v -1.893 h -3.965 v -3.8 h -1.98"
           id="path3510"
           style="fill:#ffffff" />
        <path
           inkscape:connector-curvature="0"
           d="m 167.527,160.837 h 1.986 v -1.9 h -1.986 v 1.9"
           id="path3512"
           style="fill:#ffffff" />
        <path
           inkscape:connector-curvature="0"
           d="m 169.513,158.937 h 1.983 v -1.9 h -1.983 v 1.9"
           id="path3514"
           style="fill:#ffffff" />
        <path
           inkscape:connector-curvature="0"
           d="m 167.527,162.73 v 1.9 h 1.986 v -1.9 h -1.986"
           id="path3516"
           style="fill:#ffffff" />
        <path
           inkscape:connector-curvature="0"
           d="m 169.513,164.63 v 1.9 h 1.983 v -1.9 h -1.983"
           id="path3518"
           style="fill:#ffffff" />
        <path
           inkscape:connector-curvature="0"
           d="m 173.47,157.038 v 9.49 h 9.917 v -1.897 h -7.935 v -1.9 h 3.97 v -1.894 h -3.97 v -1.9 h 7.935 v -1.9 h -9.916"
           id="path3520"
           style="fill:#ffffff" />
        <path
           inkscape:connector-curvature="0"
           d="m 185.367,157.037 v 9.492 h 1.983 v -3.8 h 3.964 v 1.9 h 1.983 v -1.9 h 1.986 v -5.693 h -9.916 z m 1.983,1.9 h 5.947 v 1.9 h -5.947 z"
           id="path3522"
           style="fill:#ffffff" />
        <path
           inkscape:connector-curvature="0"
           d="m 193.297,164.63 v 1.9 h 1.986 v -1.898 h -1.986"
           id="path3524"
           style="fill:#ffffff" />
        <path
           inkscape:connector-curvature="0"
           d="m 197.257,157.038 v 5.692 h 7.934 v 1.9 h -7.934 v 1.9 h 9.916 v -5.694 h -7.933 v -1.9 h 7.933 v -1.9 h -9.915"
           id="path3526"
           style="fill:#ffffff" />
        <path
           inkscape:connector-curvature="0"
           d="m 209.152,157.037 v 9.492 h 1.98 v -3.8 h 7.936 v -5.693 h -9.916 z m 1.98,1.9 h 5.95 v 1.9 h -5.95 z"
           id="path3528"
           style="fill:#ffffff" />
        <path
           inkscape:connector-curvature="0"
           d="m 221.04,157.037 v 9.49 h 1.983 v -3.797 h 5.95 v 3.8 h 1.984 v -9.493 h -9.918 z m 1.983,1.9 h 5.952 v 1.9 h -5.952 z"
           id="path3530"
           style="fill:#ffffff" />
        <path
           inkscape:connector-curvature="0"
           d="m 232.935,157.037 v 9.49 h 9.912 v -1.897 h -7.93 v -5.694 h 7.93 v -1.9 h -9.912"
           id="path3532"
           style="fill:#ffffff" />
        <path
           inkscape:connector-curvature="0"
           d="m 244.825,157.036 v 9.49 h 9.917 v -1.897 h -7.935 v -1.9 h 3.965 v -1.896 h -3.965 v -1.9 h 7.936 v -1.9 h -9.917"
           id="path3534"
           style="fill:#ffffff" />
      </g>
      <g
         id="g3536"
         style="fill:#ffffff"
         transform="matrix(1.0123635,0,0,0.73486198,-0.21904394,40.777425)">
        <path
           inkscape:connector-curvature="0"
           d="m 19.264,17.717 -1.547,5.754 6.596,1.348 -1.553,5.752 6.597,1.352 1.55,-5.752 -6.595,-1.354 1.55,-5.746 -6.598,-1.353 z m 10.093,14.205 -1.55,5.752 6.6,1.347 1.548,-5.745 -6.598,-1.353 z m 5.05,7.1 -1.553,5.75 6.597,1.355 L 41,40.373 34.406,39.021 Z m 5.044,7.105 -1.548,5.75 6.592,1.35 1.555,-5.752 -6.6,-1.348 z m 5.044,7.1 -0.9,3.355 -7.31,0.057 c -0.794,5.292 2.71,9.004 3.782,10.464 l 11.186,-0.358 3.336,0.684 -1.55,5.75 6.6,1.353 1.546,-5.75 -6.594,-1.353 0.213,-0.8 25.984,-0.83 -1.416,87.84 c 5.178,0.18 8.29,0.302 9.784,-0.187 l 0.47,-87.94 30.47,-0.974 -0.026,0.1 6.596,1.354 0.45,-1.678 55.265,-1.77 -0.335,1.24 6.596,1.355 0.76,-2.818 45.71,-1.465 -1.174,4.37 6.59,1.353 1.55,-5.752 -0.814,-0.168 13.52,-0.476 -0.567,-5.366 -17.545,0.243 0.36,-1.337 -6.598,-1.346 1.554,-5.754 -6.595,-1.352 -1.548,5.755 6.59,1.354 -0.737,2.735 -45.41,0.358 0.86,-3.186 -6.596,-1.353 1.544,-5.75 -6.59,-1.346 -1.553,5.752 6.6,1.346 -1.238,4.59 -54.91,0.43 0.76,-2.823 -6.59,-1.346 1.545,-5.746 -6.596,-1.354 -1.545,5.752 6.595,1.353 -1.138,4.224 -25.758,0.203 0.017,-3.233 -8.71,0.977 -0.04,2.325 -30.372,0.24 0.524,-1.95 -6.596,-1.35 -0.002,0.002 z m 67.027,-8.54 1.554,-5.748 -6.582,-1.35 1.522,-5.643 -6.594,-1.353 -1.55,5.752 6.58,1.35 -1.518,5.642 6.59,1.348 z m 113.87,0.584 1.548,-5.75 -6.592,-1.346 -1.553,5.752 6.598,1.345 z m -165.754,29.263 -1.553,5.748 6.596,1.357 -1.547,5.748 6.594,1.35 1.55,-5.75 -6.597,-1.35 1.547,-5.75 -6.59,-1.352 z m 10.09,14.2 -1.55,5.75 6.594,1.355 1.548,-5.752 -6.59,-1.352 z m 26.658,-65.35 -1.55,5.752 6.59,1.345 1.554,-5.746 -6.595,-1.35 z m 67.025,6.252 -1.553,5.75 6.598,1.345 1.55,-5.746 -6.595,-1.35 z m 5.047,7.095 -1.55,5.754 6.6,1.352 1.546,-5.75 z m 20.184,28.413 -1.546,5.75 6.59,1.353 1.554,-5.752 -6.597,-1.35 z m -61.976,0.853 -1.553,5.748 6.595,1.35 1.55,-5.75 -6.59,-1.348 z m 113.863,0.586 -1.55,5.748 6.6,1.35 1.546,-5.75 z m -46.84,5.664 -1.548,5.748 6.594,1.35 1.55,-5.75 -6.598,-1.348 z m -61.98,0.85 -1.547,5.75 6.592,1.355 1.553,-5.753 -6.598,-1.35 z m 5.045,7.105 -1.55,5.745 6.6,1.354 1.548,-5.75 -6.598,-1.35 z"
           id="path3538"
           style="fill:#ffffff" />
        <path
           inkscape:connector-curvature="0"
           d="m 94.320565,149.387 h 8.115015 v 4.317 h -8.117015 v -4.317"
           id="path3540"
           style="fill:#ffffff" />
        <path
           inkscape:connector-curvature="0"
           d="m 109.89658,90.95 v 2.09 h -4.277 v 60.66 h 8.125 v -25.095 h 24.34 V 153.7 h 8.097 V 93.04 h -4.88 v -2.09 z m 3.848,12.53 h 24.34 v 12.563 h -24.34 z"
           id="path3542"
           style="fill:#ffffff" />
        <path
           inkscape:connector-curvature="0"
           d="m 149.39358,149.387 h 8.115 v 4.317 h -8.115 v -4.317"
           id="path3544"
           style="fill:#ffffff" />
        <path
           inkscape:connector-curvature="0"
           d="m 160.68658,90.93 v 62.773 h 8.116 v -37.66 h 8.115 v -0.01 h 8.117 v 0.01 h 8.117 v 37.66 h 8.113 V 90.93 h -8.113 v 9.8384 h -8.117 v 5.2296 h -8.116 v -5.2296 h -8.112 V 90.93 h -8.119 z m 24.347,25.113 h -8.116 v 3.727 h 8.117 v -3.727 z"
           id="path3546"
           style="fill:#ffffff"
           sodipodi:nodetypes="cccccccccccccccccccccccccccc" />
        <path
           inkscape:connector-curvature="0"
           d="m 204.47258,148.797 h 8.115 v 4.908 h -8.113 v -4.908"
           id="path3548"
           style="fill:#ffffff" />
        <path
           inkscape:connector-curvature="0"
           d="m 216.98258,97.605 h 8.92 v 51.192 h -8.92 v 4.907 h 25.95 v -4.907 h -8.92 V 97.605 h 8.92 V 90.93 h -25.95 z"
           id="path3550"
           style="fill:#ffffff" />
      </g>
    </g>
  </g>
</svg>
