<?xml version="1.0" encoding="UTF-8" standalone="no"?>
<svg
   xmlns:dc="http://purl.org/dc/elements/1.1/"
   xmlns:cc="http://creativecommons.org/ns#"
   xmlns:rdf="http://www.w3.org/1999/02/22-rdf-syntax-ns#"
   xmlns:svg="http://www.w3.org/2000/svg"
   xmlns="http://www.w3.org/2000/svg"
   xmlns:sodipodi="http://sodipodi.sourceforge.net/DTD/sodipodi-0.dtd"
   xmlns:inkscape="http://www.inkscape.org/namespaces/inkscape"
   viewBox="0 0 254.26888 128.15301"
   id="svg3466"
   version="1.1"
   inkscape:version="0.91 r13725"
   sodipodi:docname="tami_sticker.svg"
   width="71.76033mm"
   height="36.167629mm">
  <metadata
     id="metadata3556">
    <rdf:RDF>
      <cc:Work
         rdf:about="">
        <dc:format>image/svg+xml</dc:format>
        <dc:type
           rdf:resource="http://purl.org/dc/dcmitype/StillImage" />
        <dc:title></dc:title>
      </cc:Work>
    </rdf:RDF>
  </metadata>
  <defs
     id="defs3554" />
  <sodipodi:namedview
     pagecolor="#ffffff"
     bordercolor="#666666"
     borderopacity="1"
     objecttolerance="10"
     gridtolerance="10"
     guidetolerance="10"
     inkscape:pageopacity="0"
     inkscape:pageshadow="2"
     inkscape:window-width="1916"
     inkscape:window-height="1041"
     id="namedview3552"
     showgrid="false"
     showguides="true"
     inkscape:guide-bbox="true"
     fit-margin-top="0"
     fit-margin-left="0"
     fit-margin-right="0"
     fit-margin-bottom="0"
     units="mm"
     inkscape:zoom="4.6404845"
     inkscape:cx="121.17598"
     inkscape:cy="82.426743"
     inkscape:window-x="0"
     inkscape:window-y="37"
     inkscape:window-maximized="0"
     inkscape:current-layer="g3468" />
  <g
     inkscape:groupmode="layer"
     id="layer1"
     inkscape:label="bwd"
     style="display:inline"
     transform="translate(-11.205727,-46.397728)">
    <rect
       style="opacity:1;fill:#000000;fill-opacity:1;stroke:none;stroke-width:3.0999999;stroke-miterlimit:4;stroke-dasharray:3.1, 3.1;stroke-dashoffset:0;stroke-opacity:1"
       id="rect4588"
       width="254.26888"
       height="128.15302"
       x="11.205727"
       y="46.397728" />
  </g>
  <g
     inkscape:groupmode="layer"
     id="layer2"
     inkscape:label="logo"
     style="display:inline"
     transform="translate(-11.205727,-46.397728)">
    <g
       transform="translate(0,1.0986328e-6)"
       id="g3468"
       style="fill:#ffffff">
      <g
         id="g3470"
         style="fill:#ffffff"
         transform="translate(-2,2)">
        <path
           inkscape:connector-curvature="0"
           d="m 40.187,157.033 0,1.9 3.965,0 0,7.594 1.983,0 0,-7.594 3.968,0 0,-1.9 -9.916,0"
           id="path3472"
           style="fill:#ffffff" />
        <path
           inkscape:connector-curvature="0"
           d="m 52.077,157.033 0,9.494 9.915,0 0,-1.9 -7.934,0 0,-1.9 3.97,0 0,-1.893 -3.97,0 0,-1.9 7.934,0 0,-1.9 -9.916,0"
           id="path3474"
           style="fill:#ffffff" />
        <path
           inkscape:connector-curvature="0"
           d="m 63.97,157.034 0,9.493 9.918,0 0,-1.9 -7.935,0 0,-7.594 -1.983,0"
           id="path3476"
           style="fill:#ffffff" />
        <path
           inkscape:connector-curvature="0"
           d="m 76.307,157.033 0,9.494 1.982,0 0,-3.8 5.95,0 0,3.8 1.985,0 0,-9.494 -9.918,0 z m 1.982,1.9 5.952,0 0,1.9 -5.951,0 0,-1.9 z"
           id="path3478"
           style="fill:#ffffff" />
        <path
           inkscape:connector-curvature="0"
           d="m 88.2,157.033 0,5.695 1.984,0 0,-5.695 -1.984,0"
           id="path3480"
           style="fill:#ffffff" />
        <path
           inkscape:connector-curvature="0"
           d="m 90.184,162.728 0,1.9 1.982,0 0,-1.9 -1.982,0"
           id="path3482"
           style="fill:#ffffff" />
        <path
           inkscape:connector-curvature="0"
           d="m 92.166,164.628 0,1.9 1.983,0 0,-1.9 -1.985,0"
           id="path3484"
           style="fill:#ffffff" />
        <path
           inkscape:connector-curvature="0"
           d="m 94.148,164.628 1.98,0 0,-1.9 -1.98,0 0,1.9"
           id="path3486"
           style="fill:#ffffff" />
        <path
           inkscape:connector-curvature="0"
           d="m 96.128,162.728 1.99,0 0,-5.695 -1.99,0 0,5.695"
           id="path3488"
           style="fill:#ffffff" />
        <path
           inkscape:connector-curvature="0"
           d="m 100.09,157.033 0,9.494 1.982,0 0,-9.494 -1.982,0"
           id="path3490"
           style="fill:#ffffff" />
        <path
           inkscape:connector-curvature="0"
           d="m 104.04,157.033 0,5.695 1.982,0 0,-5.695 -1.983,0"
           id="path3492"
           style="fill:#ffffff" />
        <path
           inkscape:connector-curvature="0"
           d="m 106.023,162.728 0,1.9 1.988,0 0,-1.9 -1.987,0"
           id="path3494"
           style="fill:#ffffff" />
        <path
           inkscape:connector-curvature="0"
           d="m 108.01,164.628 0,1.9 1.983,0 0,-1.9 -1.982,0"
           id="path3496"
           style="fill:#ffffff" />
        <path
           inkscape:connector-curvature="0"
           d="m 109.993,164.628 1.983,0 0,-1.9 -1.983,0 0,1.9"
           id="path3498"
           style="fill:#ffffff" />
        <path
           inkscape:connector-curvature="0"
           d="m 111.976,162.728 1.98,0 0,-5.695 -1.98,0 0,5.695"
           id="path3500"
           style="fill:#ffffff" />
      </g>
      <g
         id="g3502"
         style="fill:#ffffff"
         transform="translate(2.7070318,2)">
        <path
           inkscape:connector-curvature="0"
           d="m 125.902,157.038 0,9.493 1.986,0 0,-3.797 5.947,0 0,3.8 1.982,0 0,-9.493 -1.983,0 0,3.798 -5.948,0 0,-3.8 -1.986,0"
           id="path3504"
           style="fill:#ffffff" />
        <path
           inkscape:connector-curvature="0"
           d="m 137.793,157.04 0,9.49 1.98,0 0,-3.798 5.954,0 0,3.8 1.984,0 0,-9.493 -9.917,0 z m 1.986,1.9 5.95,0 0,1.898 -5.95,0 0,-1.9 z"
           id="path3506"
           style="fill:#ffffff" />
        <path
           inkscape:connector-curvature="0"
           d="m 149.683,157.04 0,9.49 9.918,0 0,-1.897 -7.93,0 0,-5.694 7.93,0 0,-1.9 -9.917,0"
           id="path3508"
           style="fill:#ffffff" />
        <path
           inkscape:connector-curvature="0"
           d="m 161.578,157.04 0,9.49 1.983,0 0,-3.8 3.966,0 0,-1.893 -3.965,0 0,-3.8 -1.98,0"
           id="path3510"
           style="fill:#ffffff" />
        <path
           inkscape:connector-curvature="0"
           d="m 167.527,160.837 1.986,0 0,-1.9 -1.986,0 0,1.9"
           id="path3512"
           style="fill:#ffffff" />
        <path
           inkscape:connector-curvature="0"
           d="m 169.513,158.937 1.983,0 0,-1.9 -1.983,0 0,1.9"
           id="path3514"
           style="fill:#ffffff" />
        <path
           inkscape:connector-curvature="0"
           d="m 167.527,162.73 0,1.9 1.986,0 0,-1.9 -1.986,0"
           id="path3516"
           style="fill:#ffffff" />
        <path
           inkscape:connector-curvature="0"
           d="m 169.513,164.63 0,1.9 1.983,0 0,-1.9 -1.983,0"
           id="path3518"
           style="fill:#ffffff" />
        <path
           inkscape:connector-curvature="0"
           d="m 173.47,157.038 0,9.49 9.917,0 0,-1.897 -7.935,0 0,-1.9 3.97,0 0,-1.894 -3.97,0 0,-1.9 7.935,0 0,-1.9 -9.916,0"
           id="path3520"
           style="fill:#ffffff" />
        <path
           inkscape:connector-curvature="0"
           d="m 185.367,157.037 0,9.492 1.983,0 0,-3.8 3.964,0 0,1.9 1.983,0 0,-1.9 1.986,0 0,-5.693 -9.916,0 z m 1.983,1.9 5.947,0 0,1.9 -5.947,0 0,-1.9 z"
           id="path3522"
           style="fill:#ffffff" />
        <path
           inkscape:connector-curvature="0"
           d="m 193.297,164.63 0,1.9 1.986,0 0,-1.898 -1.986,0"
           id="path3524"
           style="fill:#ffffff" />
        <path
           inkscape:connector-curvature="0"
           d="m 197.257,157.038 0,5.692 7.934,0 0,1.9 -7.934,0 0,1.9 9.916,0 0,-5.694 -7.933,0 0,-1.9 7.933,0 0,-1.9 -9.915,0"
           id="path3526"
           style="fill:#ffffff" />
        <path
           inkscape:connector-curvature="0"
           d="m 209.152,157.037 0,9.492 1.98,0 0,-3.8 7.936,0 0,-5.693 -9.916,0 z m 1.98,1.9 5.95,0 0,1.9 -5.95,0 0,-1.9 z"
           id="path3528"
           style="fill:#ffffff" />
        <path
           inkscape:connector-curvature="0"
           d="m 221.04,157.037 0,9.49 1.983,0 0,-3.797 5.95,0 0,3.8 1.984,0 0,-9.493 -9.918,0 z m 1.983,1.9 5.952,0 0,1.9 -5.952,0 0,-1.9 z"
           id="path3530"
           style="fill:#ffffff" />
        <path
           inkscape:connector-curvature="0"
           d="m 232.935,157.037 0,9.49 9.912,0 0,-1.897 -7.93,0 0,-5.694 7.93,0 0,-1.9 -9.912,0"
           id="path3532"
           style="fill:#ffffff" />
        <path
           inkscape:connector-curvature="0"
           d="m 244.825,157.036 0,9.49 9.917,0 0,-1.897 -7.935,0 0,-1.9 3.965,0 0,-1.896 -3.965,0 0,-1.9 7.936,0 0,-1.9 -9.917,0"
           id="path3534"
           style="fill:#ffffff" />
      </g>
      <g
         id="g3536"
         style="fill:#ffffff"
         transform="matrix(1.0123635,0,0,0.73486198,-0.21904394,40.777425)">
        <path
           inkscape:connector-curvature="0"
           d="m 19.264,17.717 -1.547,5.754 6.596,1.348 -1.553,5.752 6.597,1.352 1.55,-5.752 -6.595,-1.354 1.55,-5.746 -6.598,-1.353 z m 10.093,14.205 -1.55,5.752 6.6,1.347 1.548,-5.745 -6.598,-1.353 z m 5.05,7.1 -1.553,5.75 6.597,1.355 L 41,40.373 34.406,39.021 Z m 5.044,7.105 -1.548,5.75 6.592,1.35 1.555,-5.752 -6.6,-1.348 z m 5.044,7.1 -0.9,3.355 -7.31,0.057 c -0.794,5.292 2.71,9.004 3.782,10.464 l 11.186,-0.358 3.336,0.684 -1.55,5.75 6.6,1.353 1.546,-5.75 -6.594,-1.353 0.213,-0.8 25.984,-0.83 -1.416,87.84 c 5.178,0.18 8.29,0.302 9.784,-0.187 l 0.47,-87.94 30.47,-0.974 -0.026,0.1 6.596,1.354 0.45,-1.678 55.265,-1.77 -0.335,1.24 6.596,1.355 0.76,-2.818 45.71,-1.465 -1.174,4.37 6.59,1.353 1.55,-5.752 -0.814,-0.168 13.52,-0.476 -0.567,-5.366 -17.545,0.243 0.36,-1.337 -6.598,-1.346 1.554,-5.754 -6.595,-1.352 -1.548,5.755 6.59,1.354 -0.737,2.735 -45.41,0.358 0.86,-3.186 -6.596,-1.353 1.544,-5.75 -6.59,-1.346 -1.553,5.752 6.6,1.346 -1.238,4.59 -54.91,0.43 0.76,-2.823 -6.59,-1.346 1.545,-5.746 -6.596,-1.354 -1.545,5.752 6.595,1.353 -1.138,4.224 -25.758,0.203 0.017,-3.233 -8.71,0.977 -0.04,2.325 -30.372,0.24 0.524,-1.95 -6.596,-1.35 -0.002,0.002 z m 67.027,-8.54 1.554,-5.748 -6.582,-1.35 1.522,-5.643 -6.594,-1.353 -1.55,5.752 6.58,1.35 -1.518,5.642 6.59,1.348 z m 113.87,0.584 1.548,-5.75 -6.592,-1.346 -1.553,5.752 6.598,1.345 z m -165.754,29.263 -1.553,5.748 6.596,1.357 -1.547,5.748 6.594,1.35 1.55,-5.75 -6.597,-1.35 1.547,-5.75 -6.59,-1.352 z m 10.09,14.2 -1.55,5.75 6.594,1.355 1.548,-5.752 -6.59,-1.352 z m 26.658,-65.35 -1.55,5.752 6.59,1.345 1.554,-5.746 -6.595,-1.35 z m 67.025,6.252 -1.553,5.75 6.598,1.345 1.55,-5.746 -6.595,-1.35 z m 5.047,7.095 -1.55,5.754 6.6,1.352 1.546,-5.75 -6.596,-1.356 z m 20.184,28.413 -1.546,5.75 6.59,1.353 1.554,-5.752 -6.597,-1.35 z m -61.976,0.853 -1.553,5.748 6.595,1.35 1.55,-5.75 -6.59,-1.348 z m 113.863,0.586 -1.55,5.748 6.6,1.35 1.546,-5.75 -6.596,-1.348 z m -46.84,5.664 -1.548,5.748 6.594,1.35 1.55,-5.75 -6.598,-1.348 z m -61.98,0.85 -1.547,5.75 6.592,1.355 1.553,-5.753 -6.598,-1.35 z m 5.045,7.105 -1.55,5.745 6.6,1.354 1.548,-5.75 -6.598,-1.35 z"
           id="path3538"
           style="fill:#ffffff" />
        <path
           inkscape:connector-curvature="0"
           d="m 94.320565,149.387 8.115015,0 0,4.317 -8.117015,0 0,-4.317"
           id="path3540"
           style="fill:#ffffff" />
        <path
           inkscape:connector-curvature="0"
           d="m 109.89658,90.95 0,2.09 -4.277,0 0,60.66 8.125,0 0,-25.095 24.34,0 0,25.095 8.097,0 0,-60.66 -4.88,0 0,-2.09 -31.405,0 z m 3.848,12.53 24.34,0 0,12.563 -24.34,0 0,-12.563 z"
           id="path3542"
           style="fill:#ffffff" />
        <path
           inkscape:connector-curvature="0"
           d="m 149.39358,149.387 8.115,0 0,4.317 -8.115,0 0,-4.317"
           id="path3544"
           style="fill:#ffffff" />
        <path
           inkscape:connector-curvature="0"
           d="m 160.68658,90.93 0,62.773 8.116,0 0,-37.66 8.115,0 0,-0.01 8.117,0 0,0.01 8.117,0 0,37.66 8.113,0 0,-62.773 -8.113,0 0,9.8384 -8.117,0 0,5.2296 -8.116,0 0,-5.2296 -8.112,0 0,-9.8384 -8.119,0 z m 24.347,25.113 -8.116,0 0,3.727 8.117,0 0,-3.727 z"
           id="path3546"
           style="fill:#ffffff"
           sodipodi:nodetypes="cccccccccccccccccccccccccccc" />
        <path
           inkscape:connector-curvature="0"
           d="m 204.47258,148.797 8.115,0 0,4.908 -8.113,0 0,-4.908"
           id="path3548"
           style="fill:#ffffff" />
        <path
           inkscape:connector-curvature="0"
           d="m 216.98258,97.605 8.92,0 0,51.192 -8.92,0 0,4.907 25.95,0 0,-4.907 -8.92,0 0,-51.192 8.92,0 0,-6.675 -25.95,0 0,6.675 z"
           id="path3550"
           style="fill:#ffffff" />
      </g>
    </g>
  </g>
</svg>
