<?xml version="1.0" encoding="UTF-8" standalone="no"?>
<svg
   viewBox="0 0 885.82676 423.48967"
   id="svg3466"
   version="1.1"
   inkscape:version="1.3 (0e150ed6c4, 2023-07-21)"
   sodipodi:docname="tami_stencil.svg"
   width="944.8819"
   height="451.72235"
   xmlns:inkscape="http://www.inkscape.org/namespaces/inkscape"
   xmlns:sodipodi="http://sodipodi.sourceforge.net/DTD/sodipodi-0.dtd"
   xmlns="http://www.w3.org/2000/svg"
   xmlns:svg="http://www.w3.org/2000/svg"
   xmlns:rdf="http://www.w3.org/1999/02/22-rdf-syntax-ns#"
   xmlns:cc="http://creativecommons.org/ns#"
   xmlns:dc="http://purl.org/dc/elements/1.1/">
  <metadata
     id="metadata3556">
    <rdf:RDF>
      <cc:Work
         rdf:about="">
        <dc:format>image/svg+xml</dc:format>
        <dc:type
           rdf:resource="http://purl.org/dc/dcmitype/StillImage" />
      </cc:Work>
    </rdf:RDF>
  </metadata>
  <defs
     id="defs3554" />
  <sodipodi:namedview
     pagecolor="#ffffff"
     bordercolor="#666666"
     borderopacity="1"
     objecttolerance="10"
     gridtolerance="10"
     guidetolerance="10"
     inkscape:pageopacity="0"
     inkscape:pageshadow="2"
     inkscape:window-width="1280"
     inkscape:window-height="955"
     id="namedview3552"
     showgrid="false"
     showguides="true"
     inkscape:guide-bbox="true"
     fit-margin-top="0"
     fit-margin-left="0"
     fit-margin-right="0"
     fit-margin-bottom="0"
     units="mm"
     inkscape:zoom="1.22555"
     inkscape:cx="472.44094"
     inkscape:cy="225.61299"
     inkscape:window-x="0"
     inkscape:window-y="0"
     inkscape:window-maximized="1"
     inkscape:current-layer="layer2"
     inkscape:showpageshadow="2"
     inkscape:pagecheckerboard="0"
     inkscape:deskcolor="#d1d1d1"
     inkscape:document-units="mm" />
  <g
     inkscape:groupmode="layer"
     id="layer2"
     inkscape:label="logo"
     style="display:inline"
     transform="matrix(-3.6909726,0,0,3.6909726,953.52413,-196.01326)">
    <g
       id="g3470"
       style="fill:#000000"
       transform="translate(-1.3758206,1.3087386)"
       inkscape:label="telaviv">
      <path
         inkscape:connector-curvature="0"
         d="m 35.675047,157.033 v 1.9 h 3.965 v 7.594 h 1.983 v -7.594 h 3.968 v -1.9 h -9.916"
         id="path3472"
         style="fill:#000000" />
      <path
         inkscape:connector-curvature="0"
         d="m 47.565047,157.033 v 9.494 h 9.915 v -1.9 h -7.934 v -1.9 h 3.97 v -1.893 h -3.97 v -1.9 h 7.934 v -1.9 h -9.916"
         id="path3474"
         style="fill:#000000" />
      <path
         inkscape:connector-curvature="0"
         d="m 59.458047,157.034 v 9.493 h 9.918 v -1.9 h -7.935 v -7.594 h -1.983"
         id="path3476"
         style="fill:#000000" />
      <path
         inkscape:connector-curvature="0"
         d="m 76.307,157.033 v 9.494 h 1.982 v -3.8 h 5.95 v 3.8 h 1.985 v -9.494 h -9.918 z m 1.982,1.9 h 5.952 v 1.9 H 78.29 v -1.9 z"
         id="path3478"
         style="fill:#000000" />
      <path
         id="path3480"
         style="fill:#000000"
         d="m 88.200441,157.03359 v 5.69458 h 1.669922 v 2.20093 h 2.296142 v 1.59851 h 1.983032 v -1.6388 h 2.248535 v -2.16064 h 1.719361 v -5.69458 h -1.988526 v 5.43457 H 93.87671 v 2.16064 h -1.397095 v -2.20092 h -2.296142 v -5.39429 z" />
      <path
         inkscape:connector-curvature="0"
         d="m 100.09,157.033 v 9.494 h 1.982 v -9.494 h -1.982"
         id="path3490"
         style="fill:#000000" />
      <path
         id="path3492"
         style="fill:#000000"
         d="m 104.04089,157.03359 v 5.69458 h 1.66626 v 2.20093 h 2.30347 v 1.59851 h 1.98303 v -1.54907 h 2.34925 v -2.25037 h 1.61315 v -5.69458 h -1.97937 v 5.34302 h -2.34924 v 2.25219 h -1.30005 v -2.20275 h -2.30529 v -5.39246 z" />
    </g>
    <g
       id="g3502"
       style="fill:#000000"
       transform="translate(3.3312112,1.3087386)"
       inkscape:label="hackerspace">
      <path
         inkscape:connector-curvature="0"
         d="m 125.902,157.038 v 9.493 h 1.986 v -3.797 h 5.947 v 3.8 h 1.982 v -9.493 h -1.983 v 3.798 h -5.948 v -3.8 H 125.9"
         id="path3504"
         style="fill:#000000" />
      <path
         inkscape:connector-curvature="0"
         d="m 137.793,157.04 v 9.49 h 1.98 v -3.798 h 5.954 v 3.8 h 1.984 v -9.493 h -9.917 z m 1.986,1.9 h 5.95 v 1.898 h -5.95 v -1.9 z"
         id="path3506"
         style="fill:#000000" />
      <path
         inkscape:connector-curvature="0"
         d="m 149.683,157.04 v 9.49 h 9.918 v -1.897 h -7.93 v -5.694 h 7.93 v -1.9 h -9.917"
         id="path3508"
         style="fill:#000000" />
      <path
         id="path3510"
         style="fill:#000000"
         d="m 161.58239,157.03725 -0.004,0.004 v 9.48853 h 1.98303 V 162.73 h 3.6493 v 2.20276 h 2.30163 v 1.59668 h 1.98303 v -1.8988 h -1.66626 v -2.20276 h -2.30163 v -1.24695 h 2.34558 v -2.24304 h 1.62231 v -1.90064 h -1.98303 v 1.55457 h -2.34558 v 2.24487 h -3.60535 v -3.79944 z" />
      <path
         inkscape:connector-curvature="0"
         d="m 173.47,157.038 v 9.49 h 9.917 v -1.897 h -7.935 v -1.9 h 3.97 v -1.894 h -3.97 v -1.9 h 7.935 v -1.9 h -9.916"
         id="path3520"
         style="fill:#000000" />
      <path
         id="path3522"
         style="fill:#000000"
         d="m 185.36779,157.03542 v 0.002 9.49219 h 1.98304 v -3.80127 h 3.9624 v 1.90063 h 1.47766 v 1.90064 h 2.49206 v -2.38037 h -1.98669 v -1.4209 h 1.98669 v -5.69275 z m 1.98304,1.90247 h 5.94543 v 1.8988 h -5.94543 z" />
      <path
         inkscape:connector-curvature="0"
         d="m 197.257,157.038 v 5.692 h 7.934 v 1.9 h -7.934 v 1.9 h 9.916 v -5.694 h -7.933 v -1.9 h 7.933 v -1.9 h -9.915"
         id="path3526"
         style="fill:#000000" />
      <path
         inkscape:connector-curvature="0"
         d="m 209.152,157.037 v 9.492 h 1.98 v -3.8 h 7.936 v -5.693 h -9.916 z m 1.98,1.9 h 5.95 v 1.9 h -5.95 z"
         id="path3528"
         style="fill:#000000" />
      <path
         inkscape:connector-curvature="0"
         d="m 221.04,157.037 v 9.49 h 1.983 v -3.797 h 5.95 v 3.8 h 1.984 v -9.493 h -9.918 z m 1.983,1.9 h 5.952 v 1.9 h -5.952 z"
         id="path3530"
         style="fill:#000000" />
      <path
         inkscape:connector-curvature="0"
         d="m 232.935,157.037 v 9.49 h 9.912 v -1.897 h -7.93 v -5.694 h 7.93 v -1.9 h -9.912"
         id="path3532"
         style="fill:#000000" />
      <path
         inkscape:connector-curvature="0"
         d="m 244.825,157.036 v 9.49 h 9.917 v -1.897 h -7.935 v -1.9 h 3.965 v -1.896 h -3.965 v -1.9 h 7.936 v -1.9 h -9.917"
         id="path3534"
         style="fill:#000000" />
    </g>
    <g
       id="g3536"
       style="fill:#000000"
       transform="matrix(1.0123635,0,0,0.73486198,0.40513544,40.086164)"
       inkscape:label="tami">
      <path
         id="path3538"
         style="fill:#000000"
         d="m 19.263598,17.717563 -1.546433,5.753332 6.373834,1.475086 -1.331198,5.626255 6.221903,1.597179 -1.173841,5.504162 6.277972,1.522428 -1.231719,5.576422 6.28159,1.71678 -1.233529,5.387053 6.285208,1.487544 -0.593251,3.219274 -7.308928,0.05482 c -0.793999,5.291995 2.709978,9.005136 3.781977,10.465134 l 11.184956,-0.358804 3.04403,0.867111 -1.257041,5.566455 6.343085,1.661963 -1.296832,5.441869 6.373833,1.522428 -1.325772,5.583897 6.36479,1.619604 -1.320345,5.476754 6.594494,1.355484 1.548241,-5.753332 c -2.062344,-0.485863 -4.379728,-1.11519 -6.308721,-1.522428 l 1.266085,-5.576422 -6.312338,-1.544853 1.262468,-5.556488 c -2.040202,-0.431057 -4.194667,-0.984688 -6.230947,-1.55482 l 1.188311,-5.549013 -6.482355,-1.519936 0.101287,-0.632892 25.983681,-0.829735 -1.416207,87.839846 c 5.177995,0.18 8.289222,0.30213 9.78322,-0.18687 l 0.47026,-87.942013 30.471044,-0.971763 -0.0271,0.09967 6.35756,1.412793 -1.31311,5.693532 6.41181,1.495019 -1.36375,5.606322 6.39916,1.475086 -1.35652,5.626255 6.59992,1.352993 1.54824,-5.750841 c -2.09243,-0.365827 -5.21442,-1.161564 -6.45523,-1.455152 l 1.40897,-5.646189 c -2.04955,-0.338629 -4.93139,-1.144157 -6.41362,-1.480069 l 1.36556,-5.623764 c -2.08751,-0.375555 -4.32123,-1.219712 -6.42267,-1.642029 l 0.28035,-1.387877 55.26461,-1.771597 -0.33461,1.240866 6.36298,1.502494 -1.31311,5.606322 6.4082,1.557312 -1.36375,5.544029 6.59449,1.350501 1.55005,-5.750841 c -2.11139,-0.472668 -4.39076,-0.795786 -6.47874,-1.397843 l 1.4343,-5.701006 c -2.07595,-0.463755 -4.33702,-0.937286 -6.39012,-1.574754 l 0.55166,-2.598842 45.70928,-1.465118 -1.17384,4.370439 6.47693,1.417777 -1.4361,5.686056 6.59992,1.350501 1.54643,-5.750841 -6.46789,-1.46761 1.42164,-5.636223 -0.81392,-0.166944 13.51998,-0.475914 -0.56793,-5.367119 -17.54432,0.244187 0.35993,-1.338043 -6.4498,-1.422759 1.40536,-5.67609 -6.46789,-1.457644 1.41983,-5.646189 -6.59088,-1.345517 -1.55367,5.753332 c 2.12862,0.438036 4.324,0.96456 6.45523,1.42276 l -1.40536,5.676089 6.51672,1.430236 -0.66379,2.658642 -45.40904,0.356313 0.85913,-3.184391 -6.45161,-1.450169 1.39993,-5.653664 -6.29606,-1.567278 1.25343,-5.52908 -6.29064,-1.574753 1.24257,-5.526588 -6.59449,-1.3505 -1.55367,5.75084 6.30872,1.55482 -1.25885,5.54403 6.31958,1.539869 -1.27332,5.563963 6.47693,1.452661 -1.11597,4.485057 -54.9101,0.428572 0.76146,-2.823094 -6.44438,-1.45266 1.39812,-5.638715 -6.39192,-1.592195 1.34929,-5.509146 -6.38288,-1.430235 1.32215,-5.563963 -6.27797,-1.53987 1.24257,-5.671106 -6.59449,-1.348009 h -0.0018 l -1.548241,5.750841 6.391921,1.622096 -1.35652,5.586388 6.45884,1.400335 -1.39631,5.591371 c 2.07621,0.428444 4.23867,1.001182 6.32319,1.460136 l -1.27874,5.641206 6.43171,1.475085 -0.97489,4.101336 -25.757593,0.204319 0.01628,-3.234224 -8.708856,0.976746 -0.03979,2.327246 -30.37157,0.239203 0.522712,-1.951 c -1.980767,-0.347214 -4.715005,-1.19193 -6.285207,-1.619604 l 1.238954,-5.481737 c -2.033335,-0.424589 -4.197796,-1.070125 -6.249033,-1.552328 l 1.199163,-5.551505 c -2.026103,-0.422748 -4.204907,-1.143633 -6.245416,-1.689372 l 1.199163,-5.406986 -6.305103,-1.597179 1.257041,-5.506654 -6.36479,-1.61462 1.320346,-5.486721 z" />
      <path
         inkscape:connector-curvature="0"
         d="m 94.320565,149.387 h 8.115015 v 4.317 h -8.117015 v -4.317"
         id="path3540"
         style="fill:#000000" />
      <path
         inkscape:connector-curvature="0"
         d="m 109.89658,90.95 v 2.09 h -4.277 v 60.66 h 8.125 v -25.095 h 24.34 V 153.7 h 8.097 V 93.04 h -4.88 v -2.09 z m 3.848,12.53 h 24.34 v 12.563 h -24.34 z"
         id="path3542"
         style="fill:#000000" />
      <path
         inkscape:connector-curvature="0"
         d="m 149.39358,149.387 h 8.115 v 4.317 h -8.115 v -4.317"
         id="path3544"
         style="fill:#000000" />
      <path
         id="path3546"
         style="fill:#000000"
         d="m 160.6871,90.931144 v 62.770876 h 8.1156 v -37.65954 h 8.09571 l 0.0199,3.72758 h 8.1156 c 0.006,-1.18232 0.0178,-2.52858 0.0127,-3.72758 h 8.10476 v 37.65954 h 8.11379 V 90.931144 h -8.11379 v 9.837226 h -8.11742 v 5.23008 h -8.1156 v -5.23008 h -8.11199 v -9.837226 z" />
      <path
         inkscape:connector-curvature="0"
         d="m 204.47258,148.797 h 8.115 v 4.908 h -8.113 v -4.908"
         id="path3548"
         style="fill:#000000" />
      <path
         inkscape:connector-curvature="0"
         d="m 216.98258,97.605 h 8.92 v 51.192 h -8.92 v 4.907 h 25.95 v -4.907 h -8.92 V 97.605 h 8.92 V 90.93 h -25.95 z"
         id="path3550"
         style="fill:#000000" />
    </g>
  </g>
</svg>
