<svg xmlns="http://www.w3.org/2000/svg" viewBox="0 0 272.50329 184.24752"><path d="M40.187 157.033v1.9h3.965v7.594h1.983v-7.594h3.968v-1.9h-9.916m11.89 0v9.494h9.915v-1.9h-7.934v-1.9h3.97v-1.893h-3.97v-1.9h7.934v-1.9h-9.916m11.894 0v9.493h9.918v-1.9h-7.935v-7.594H63.97m12.337 0v9.494h1.982v-3.8h5.952v3.8h1.983v-9.494h-9.918m11.894 0v5.695h1.984v-5.695H88.2m1.984 5.695v1.9h1.982v-1.9h-1.982m1.982 1.9v1.9h1.983v-1.9h-1.984m1.983 0h1.98v-1.9h-1.98v1.9m1.98-1.9h1.99v-5.695h-1.99v5.695m3.962-5.695v9.494h1.982v-9.494h-1.982m3.95 0v5.695h1.982v-5.695h-1.983m1.984 5.695v1.9h1.988v-1.9h-1.988m1.988 1.9v1.9h1.982v-1.9h-1.982m1.982 0h1.983v-1.9h-1.983v1.9m1.983-1.9h1.98v-5.695h-1.98v5.695m13.926-5.69v9.493h1.986v-3.798h5.947v3.8h1.982v-9.493h-1.983v3.798h-5.948v-3.8h-1.987m11.893 0v9.493h1.982v-3.798h5.953v3.8h1.984v-9.493h-9.918m11.89 0v9.49h9.918v-1.897h-7.93v-5.694h7.93v-1.9h-9.918m11.895 0v9.49h1.983v-3.798h3.965v-1.894h-3.965v-3.8h-1.982m5.948 3.8h1.986v-1.9h-1.986v1.9m1.986-1.9h1.983v-1.9h-1.983v1.9m-1.986 3.794v1.9h1.986v-1.9h-1.986m1.986 1.9v1.9h1.983v-1.9h-1.983m3.957-7.593v9.49h9.917v-1.897h-7.935v-1.9h3.97v-1.895h-3.97v-1.9h7.935v-1.9h-9.916m11.896 0v9.493h1.982v-3.798h3.965v1.9h1.983v-1.9h1.986v-5.693h-9.916m7.93 7.593v1.898h1.986v-1.897h-1.986m3.96-7.594v5.692h7.934v1.9h-7.935v1.9h9.916v-5.694h-7.933v-1.9h7.934v-1.9h-9.915m11.894 0v9.493h1.98v-3.798h7.937v-5.693h-9.918m11.888 0v9.49h1.984v-3.798h5.95v3.8h1.984v-9.493h-9.918m11.896 0v9.49h9.912v-1.897h-7.93v-5.694h7.93v-1.9h-9.912m11.89 0v9.49h9.917v-1.897h-7.935v-1.9h3.965v-1.895h-3.965v-1.9h7.936v-1.9h-9.917M78.29 158.934h5.952v1.9H78.29v-1.9m61.488.006h5.953v1.898h-5.952v-1.9m47.57 0h5.948v1.9h-5.948v-1.9m23.783 0h5.95v1.9h-5.95v-1.9m11.892 0h5.95v1.9h-5.95v-1.9M19.263 17.717l-1.546 5.753 6.595 1.348 1.55-5.748zm5.05 7.1L22.76 30.57l6.597 1.352 1.55-5.752zm5.044 7.105l-1.55 5.752 6.6 1.347 1.548-5.745zm5.05 7.1l-1.554 5.75 6.598 1.355L41 40.373zm5.044 7.105l-1.548 5.75 6.592 1.35 1.553-5.753zm5.044 7.1l-.902 3.355-7.307.056c-.795 5.293 2.707 9.005 3.78 10.465l11.185-.357 3.338.683.214-.8 25.985-.83-1.416 87.84c5.177.18 8.288.304 9.782-.185l.47-87.94 30.47-.974-.026.1 6.596 1.354.45-1.678 55.265-1.77-.334 1.24 6.595 1.354.76-2.818 45.71-1.465-1.175 4.37 6.592 1.353 1.55-5.752-.816-.168 13.52-.476-.566-5.365-17.546.242.36-1.338-6.597-1.347-.737 2.74-45.41.357.86-3.185-6.596-1.355-1.237 4.594-54.91.43.76-2.824-6.59-1.345-1.14 4.225-25.758.203.017-3.232-8.712.977-.037 2.324-30.374.24.524-1.95-6.596-1.35zm72.076-1.436l1.547-5.75-6.596-1.355-1.548 5.752zm-5.05-7.105l1.554-5.746-6.582-1.35 1.52-5.643-6.594-1.354-1.547 5.752 6.577 1.35-1.518 5.643zm67.027 6.25l1.546-5.752-6.59-1.347-1.552 5.752zm-5.043-7.1l1.547-5.75-6.595-1.355-1.55 5.754zm-5.05-7.105l1.548-5.746-6.592-1.35-1.553 5.75zm61.977 15.647l1.554-5.754-6.596-1.352-1.548 5.753zm-5.042-7.106l1.547-5.75-6.592-1.348-1.552 5.752zm15.137 21.31l-1.55 5.748 6.6 1.35 1.546-5.75zm-51.887-1.44l-1.546 5.75 6.59 1.354 1.554-5.752zm5.045 7.104l-1.547 5.748 6.596 1.35 1.55-5.75zm-67.02-6.25l-1.554 5.748 6.595 1.35 1.55-5.75zm5.042 7.1l-1.547 5.75 6.592 1.355 1.552-5.753zm5.045 7.105l-1.55 5.745 6.6 1.352 1.547-5.75zM54.588 67.43l-1.55 5.75 6.598 1.353 1.547-5.75zm5.048 7.103l-1.552 5.748 6.595 1.355 1.548-5.752zm5.043 7.102l-1.547 5.75 6.595 1.35 1.55-5.75zm5.048 7.1l-1.552 5.75 6.597 1.353 1.547-5.752zm26.657-65.352l-1.55 5.752 6.592 1.345 1.553-5.746zM106.174 149.387h8.115v4.317h-8.116v-4.317"/><path d="M121.75 90.95v2.09h-4.278v60.66h8.125v-25.095h24.34V153.7h8.098V93.04h-4.88v-2.09H121.75zm3.847 12.53h24.34v12.563h-24.34V103.48zM161.247 149.387h8.115v4.317h-8.115v-4.317M172.54 90.93v62.773h8.116v-37.66h8.115v-.01h8.116v.01h8.116v37.66h8.115V90.93h-8.115v12.56h-8.116v2.508h-8.115v-2.508h-8.114V90.93h-8.115zm24.346 25.113h-8.115v3.726h8.116v-3.727zM216.326 148.797h8.115v4.908h-8.114v-4.908M228.836 97.605h8.92v51.192h-8.92v4.907h25.95v-4.907h-8.92V97.605h8.92V90.93h-25.95v6.675z"/></svg>