<?xml version="1.0" encoding="UTF-8" standalone="no"?>
<!-- Created with Inkscape (http://www.inkscape.org/) -->

<svg
   xmlns:dc="http://purl.org/dc/elements/1.1/"
   xmlns:cc="http://creativecommons.org/ns#"
   xmlns:rdf="http://www.w3.org/1999/02/22-rdf-syntax-ns#"
   xmlns:svg="http://www.w3.org/2000/svg"
   xmlns="http://www.w3.org/2000/svg"
   xmlns:sodipodi="http://sodipodi.sourceforge.net/DTD/sodipodi-0.dtd"
   xmlns:inkscape="http://www.inkscape.org/namespaces/inkscape"
   width="210mm"
   height="297mm"
   viewBox="0 0 744.09448819 1052.3622047"
   id="svg2"
   version="1.1"
   inkscape:version="0.91 r13725"
   sodipodi:docname="tami_sticker.svg">
  <sodipodi:namedview
     id="base"
     pagecolor="#ffffff"
     bordercolor="#666666"
     borderopacity="1.0"
     inkscape:pageopacity="0.0"
     inkscape:pageshadow="2"
     inkscape:zoom="3.9644347"
     inkscape:cx="299.51023"
     inkscape:cy="740.69435"
     inkscape:document-units="px"
     inkscape:current-layer="g4416"
     showgrid="false"
     inkscape:window-width="956"
     inkscape:window-height="1041"
     inkscape:window-x="0"
     inkscape:window-y="37"
     inkscape:window-maximized="0" />
  <defs
     id="defs4" />
  <metadata
     id="metadata7">
    <rdf:RDF>
      <cc:Work
         rdf:about="">
        <dc:format>image/svg+xml</dc:format>
        <dc:type
           rdf:resource="http://purl.org/dc/dcmitype/StillImage" />
        <dc:title></dc:title>
      </cc:Work>
    </rdf:RDF>
  </metadata>
  <g
     inkscape:label="Layer 1"
     inkscape:groupmode="layer"
     id="layer1">
    <g
       transform="matrix(1.25,0,0,-1.25,177.43969,401.13418)"
       inkscape:label="TAMI-ant_rot_20150324 (1)"
       id="g4414">
      <g
         id="g4416"
         style="fill:#000000">
        <path
           style="fill:#000000;fill-opacity:1;fill-rule:nonzero;stroke:none"
           d="M187.07422 379.19727L187.07422 381.09766L191.03906 381.09766L191.03906 388.69141L193.02148 388.69141L193.02148 381.09766L196.99023 381.09766L196.99023 379.19727L187.07422 379.19727L187.07422 379.19727M198.96289 379.19727L198.96289 388.69141L208.87891 388.69141L208.87891 386.79102L200.94531 386.79102L200.94531 384.89258L204.91406 384.89258L204.91406 382.99805L200.94531 382.99805L200.94531 381.09766L208.87891 381.09766L208.87891 379.19727L198.96289 379.19727L198.96289 379.19727M210.85742 379.19727L210.85742 388.69141L220.77539 388.69141L220.77539 386.79102L212.83984 386.79102L212.83984 379.19727L210.85742 379.19727L210.85742 379.19727M226.63867 379.19727L226.63867 388.69141L228.62109 388.69141L228.62109 384.89258L234.57422 384.89258L234.57422 388.69141L236.55664 388.69141L236.55664 379.19727L226.63867 379.19727L226.63867 379.19727M238.5332 379.19727L238.5332 384.89258L240.51562 384.89258L240.51562 379.19727L238.5332 379.19727L238.5332 379.19727M240.51562 384.89258L240.51562 386.79102L242.49805 386.79102L242.49805 384.89258L240.51562 384.89258L240.51562 384.89258M242.49805 386.79102L242.49805 388.69141L244.48047 388.69141L244.48047 386.79102L242.49805 386.79102L242.49805 386.79102M244.48047 386.79102L246.46289 386.79102L246.46289 384.89258L244.48047 384.89258L244.48047 386.79102L244.48047 386.79102M246.46289 384.89258L248.45117 384.89258L248.45117 379.19727L246.46289 379.19727L246.46289 384.89258L246.46289 384.89258M250.42383 379.19727L250.42383 388.69141L252.40625 388.69141L252.40625 379.19727L250.42383 379.19727L250.42383 379.19727M254.37305 379.19727L254.37305 384.89258L256.35547 384.89258L256.35547 379.19727L254.37305 379.19727L254.37305 379.19727M256.35547 384.89258L256.35547 386.79102L258.34375 386.79102L258.34375 384.89258L256.35547 384.89258L256.35547 384.89258M258.34375 386.79102L258.34375 388.69141L260.32617 388.69141L260.32617 386.79102L258.34375 386.79102L258.34375 386.79102M260.32617 386.79102L262.30859 386.79102L262.30859 384.89258L260.32617 384.89258L260.32617 386.79102L260.32617 386.79102M262.30859 384.89258L264.28906 384.89258L264.28906 379.19727L262.30859 379.19727L262.30859 384.89258L262.30859 384.89258M284.42773 379.20312L284.42773 388.69531L286.41406 388.69531L286.41406 384.89648L292.36133 384.89648L292.36133 388.69531L294.34375 388.69531L294.34375 379.20312L292.36133 379.20312L292.36133 383.00195L286.41406 383.00195L286.41406 379.20312L284.42773 379.20312L284.42773 379.20312M296.32031 379.20312L296.32031 388.69531L298.30273 388.69531L298.30273 384.89648L304.25586 384.89648L304.25586 388.69531L306.23828 388.69531L306.23828 379.20312L296.32031 379.20312L296.32031 379.20312M308.21094 379.20312L308.21094 388.69531L318.12891 388.69531L318.12891 386.79688L310.19922 386.79688L310.19922 381.10352L318.12891 381.10352L318.12891 379.20312L308.21094 379.20312L308.21094 379.20312M320.10547 379.20312L320.10547 388.69531L322.08789 388.69531L322.08789 384.89648L326.05273 384.89648L326.05273 383.00195L322.08789 383.00195L322.08789 379.20312L320.10547 379.20312L320.10547 379.20312M326.05273 383.00195L328.03906 383.00195L328.03906 381.10352L326.05273 381.10352L326.05273 383.00195L326.05273 383.00195M328.03906 381.10352L330.02148 381.10352L330.02148 379.20312L328.03906 379.20312L328.03906 381.10352L328.03906 381.10352M326.05273 384.89648L326.05273 386.79688L328.03906 386.79688L328.03906 384.89648L326.05273 384.89648L326.05273 384.89648M328.03906 386.79688L328.03906 388.69531L330.02148 388.69531L330.02148 386.79688L328.03906 386.79688L328.03906 386.79688M331.99609 379.20312L331.99609 388.69531L341.91211 388.69531L341.91211 386.79688L333.97656 386.79688L333.97656 384.89648L337.94727 384.89648L337.94727 383.00195L333.97656 383.00195L333.97656 381.10352L341.91211 381.10352L341.91211 379.20312L331.99609 379.20312L331.99609 379.20312M343.89062 379.20312L343.89062 388.69531L345.87305 388.69531L345.87305 384.89648L349.83789 384.89648L349.83789 386.79688L351.82031 386.79688L351.82031 384.89648L353.80664 384.89648L353.80664 379.20312L343.89062 379.20312L343.89062 379.20312M351.82031 386.79688L351.82031 388.69531L353.80664 388.69531L353.80664 386.79688L351.82031 386.79688L351.82031 386.79688M355.7793 379.20312L355.7793 384.89648L363.71484 384.89648L363.71484 386.79688L355.7793 386.79688L355.7793 388.69531L365.69531 388.69531L365.69531 383.00195L357.76172 383.00195L357.76172 381.10352L365.69531 381.10352L365.69531 379.20312L355.7793 379.20312L355.7793 379.20312M367.67383 379.20312L367.67383 388.69531L369.65625 388.69531L369.65625 384.89648L377.5918 384.89648L377.5918 379.20312L367.67383 379.20312L367.67383 379.20312M379.5625 379.20312L379.5625 388.69531L381.54688 388.69531L381.54688 384.89648L387.49805 384.89648L387.49805 388.69531L389.48047 388.69531L389.48047 379.20312L379.5625 379.20312L379.5625 379.20312M391.45898 379.20312L391.45898 388.69531L401.37109 388.69531L401.37109 386.79688L393.44141 386.79688L393.44141 381.10352L401.37109 381.10352L401.37109 379.20312L391.45898 379.20312L391.45898 379.20312M403.34766 379.20312L403.34766 388.69531L413.26562 388.69531L413.26562 386.79688L405.33008 386.79688L405.33008 384.89648L409.29492 384.89648L409.29492 383.00195L405.33008 383.00195L405.33008 381.10352L413.26562 381.10352L413.26562 379.20312L403.34766 379.20312L403.34766 379.20312M228.62109 381.09766L234.57422 381.09766L234.57422 382.99805L228.62109 382.99805L228.62109 381.09766L228.62109 381.09766M298.30273 381.10352L304.25586 381.10352L304.25586 383.00195L298.30273 383.00195L298.30273 381.10352L298.30273 381.10352M345.87305 381.10352L351.82031 381.10352L351.82031 383.00195L345.87305 383.00195L345.87305 381.10352L345.87305 381.10352M369.65625 381.10352L375.60352 381.10352L375.60352 383.00195L369.65625 383.00195L369.65625 381.10352L369.65625 381.10352M381.54688 381.10352L387.49805 381.10352L387.49805 383.00195L381.54688 383.00195L381.54688 381.10352L381.54688 381.10352"
           transform="matrix(0.8,0,0,-0.8,-141.95175,320.90734)"
           id="path4418" />
        <path
           style="fill:#000000;fill-opacity:1;fill-rule:nonzero;stroke:none"
           d="M 178.98633 239.88086 L 177.43945 245.63477 L 184.03516 246.98242 L 185.58398 241.23438 L 178.98633 239.88086 z M 184.03516 246.98242 L 182.48438 252.73438 L 189.08008 254.08594 L 190.62891 248.33398 L 184.03516 246.98242 z M 189.08008 254.08594 L 187.53125 259.83789 L 194.12891 261.18555 L 195.67773 255.43945 L 189.08008 254.08594 z M 194.12891 261.18555 L 192.57617 266.9375 L 199.17383 268.29102 L 200.7207 262.53711 L 194.12891 261.18555 z M 199.17383 268.29102 L 197.625 274.04102 L 204.2168 275.39062 L 205.76953 269.63867 L 199.17383 268.29102 z M 204.2168 275.39062 L 203.31445 278.74609 L 196.00781 278.80273 C 195.21281 284.09523 198.71531 287.80758 199.78906 289.26758 L 210.97266 288.91016 L 214.31055 289.59375 L 214.52539 288.79492 L 240.50977 287.96289 L 239.09375 375.80469 C 244.27 375.98469 247.38125 376.10789 248.875 375.61914 L 249.3457 287.67969 L 279.81641 286.70508 L 279.78906 286.80469 L 286.38477 288.1582 L 286.83594 286.48047 L 342.09961 284.71094 L 341.76562 285.95117 L 348.36133 287.30469 L 349.12109 284.48633 L 394.83203 283.02148 L 393.65625 287.39258 L 400.24805 288.74414 L 401.79883 282.99219 L 400.98242 282.82422 L 411.91797 282.47461 L 411.35156 277.10938 L 396.39062 277.22656 L 396.75 275.88867 L 390.1543 274.54102 L 389.41602 277.28125 L 344.00586 277.63867 L 344.86523 274.45312 L 338.26953 273.09961 L 337.0332 277.69336 L 282.12305 278.125 L 282.88281 275.30078 L 276.29297 273.95508 L 275.15234 278.17969 L 249.39453 278.38281 L 249.41211 275.15039 L 240.70117 276.12695 L 240.66406 278.45117 L 210.28906 278.69141 L 210.8125 276.74219 L 204.2168 275.39062 z M 276.29297 273.95508 L 277.83984 268.20312 L 271.24414 266.84961 L 269.69531 272.60156 L 276.29297 273.95508 z M 271.24414 266.84961 L 272.79688 261.10352 L 266.21484 259.75391 L 267.73633 254.11133 L 261.14062 252.75781 L 259.59375 258.50977 L 266.16992 259.85938 L 264.65234 265.50195 L 271.24414 266.84961 z M 338.26953 273.09961 L 339.81641 267.34766 L 333.22656 266 L 331.67383 271.75195 L 338.26953 273.09961 z M 333.22656 266 L 334.77344 260.24805 L 328.17773 258.89453 L 326.62891 264.64844 L 333.22656 266 z M 328.17773 258.89453 L 329.72461 253.14844 L 323.13281 251.79688 L 321.58008 257.54883 L 328.17773 258.89453 z M 390.1543 274.54102 L 391.70703 268.78711 L 385.11133 267.43555 L 383.5625 273.1875 L 390.1543 274.54102 z M 385.11133 267.43555 L 386.6582 261.68359 L 380.06641 260.33594 L 378.51367 266.08789 L 385.11133 267.43555 z M 400.24805 288.74414 L 398.69922 294.49219 L 405.29688 295.84375 L 406.84375 290.0918 L 400.24805 288.74414 z M 348.36133 287.30469 L 346.81445 293.05469 L 353.40625 294.4082 L 354.95898 288.65625 L 348.36133 287.30469 z M 353.40625 294.4082 L 351.85938 300.15625 L 358.45508 301.50781 L 360.00391 295.75586 L 353.40625 294.4082 z M 286.38477 288.1582 L 284.83203 293.90625 L 291.42773 295.25781 L 292.97656 289.50586 L 286.38477 288.1582 z M 291.42773 295.25781 L 289.88086 301.00977 L 296.47266 302.36328 L 298.02539 296.61133 L 291.42773 295.25781 z M 296.47266 302.36328 L 294.92383 308.10938 L 301.52148 309.46094 L 303.07031 303.71094 L 296.47266 302.36328 z M 214.31055 289.59375 L 212.76172 295.3457 L 219.35938 296.69727 L 220.90625 290.94727 L 214.31055 289.59375 z M 219.35938 296.69727 L 217.80664 302.44531 L 224.40234 303.79883 L 225.95117 298.04688 L 219.35938 296.69727 z M 224.40234 303.79883 L 222.85547 309.55078 L 229.45117 310.89844 L 231 305.15039 L 224.40234 303.79883 z M 229.45117 310.89844 L 227.89844 316.64844 L 234.49609 318.00195 L 236.04297 312.25 L 229.45117 310.89844 z M 256.10742 245.54688 L 254.55859 251.29883 L 261.15039 252.64453 L 262.70312 246.89844 L 256.10742 245.54688 z "
           transform="matrix(0.8,0,0,-0.8,-141.95175,320.90734)"
           id="path4454" />
        <path
           inkscape:connector-curvature="0"
           id="path4456"
           style="fill:#000000;fill-opacity:1;fill-rule:nonzero;stroke:none"
           d="M70.766 23.666L77.258 23.666L77.258 20.213L70.766 20.213L70.766 23.666L70.766 23.666" />
        <path
           style="fill:#000000;fill-opacity:1;fill-rule:nonzero;stroke:none"
           d="M 281.47266 313.11328 L 281.47266 315.20508 L 277.19531 315.20508 L 277.19531 375.86328 L 285.32031 375.86328 L 285.32031 350.76953 L 309.66016 350.76953 L 309.66016 375.86328 L 317.75781 375.86328 L 317.75781 315.20508 L 312.87891 315.20508 L 312.87891 313.11328 L 281.47266 313.11328 z M 285.32031 325.64453 L 309.66016 325.64453 L 309.66016 338.20703 L 285.32031 338.20703 L 285.32031 325.64453 z "
           id="path4458"
           transform="matrix(0.8,0,0,-0.8,-141.95175,320.90734)" />
        <path
           inkscape:connector-curvature="0"
           id="path4460"
           style="fill:#000000;fill-opacity:1;fill-rule:nonzero;stroke:none"
           d="M114.824 23.666L121.316 23.666L121.316 20.213L114.824 20.213L114.824 23.666L114.824 23.666" />
        <path
           style="fill:#000000;fill-opacity:1;fill-rule:nonzero;stroke:none"
           d="M 332.26367 313.0957 L 332.26367 375.86719 L 340.37891 375.86719 L 340.37891 338.20703 L 348.49414 338.20703 L 348.49414 338.19727 L 356.60938 338.19727 L 356.60938 338.20703 L 364.72461 338.20703 L 364.72461 375.86719 L 372.83984 375.86719 L 372.83984 313.0957 L 364.72461 313.0957 L 364.72461 325.6543 L 356.60938 325.6543 L 356.60938 328.16211 L 348.49414 328.16211 L 348.49414 325.6543 L 340.37891 325.6543 L 340.37891 313.0957 L 332.26367 313.0957 z M 356.60938 338.20703 L 348.49414 338.20703 L 348.49414 341.93359 L 356.60938 341.93359 L 356.60938 338.20703 z "
           transform="matrix(0.8,0,0,-0.8,-141.95175,320.90734)"
           id="path4462" />
        <path
           inkscape:connector-curvature="0"
           id="path4466"
           style="fill:#000000;fill-opacity:1;fill-rule:nonzero;stroke:none"
           d="M158.887 24.138L165.379 24.138L165.379 20.212L158.887 20.212L158.887 24.138L158.887 24.138" />
        <path
           inkscape:connector-curvature="0"
           id="path4468"
           style="fill:#000000;fill-opacity:1;fill-rule:nonzero;stroke:none"
           d="m 168.895,65.092 7.136,0 0,-40.954 -7.136,0 0,-3.925 20.761,0 0,3.925 -7.136,0 0,40.954 7.136,0 0,5.339 -20.761,0 0,-5.339 z" />
        <path
           style="fill:#000000;fill-opacity:1;fill-rule:nonzero;stroke:none"
           d="m 8.629498,6.0027936 0,-1.2031281 2.39688,0 0,-4.79687202 1.2,0 0,4.79687202 2.40312,0 0,1.2031281 -6,0 0,0 m 7.27657,0 0,-6.00000012 6,0 0,1.19844002 -4.79688,0 0,1.198432 3.59844,0 0,1.2 -3.59844,0 0,1.2 4.79688,0 0,1.2031281 -6,0 0,0 m 7.28125,0 0,-6.00000012 4.8,0 0,1.19844002 -3.6,0 0,4.8015601 -1.2,0 0,0 m 6.0828,0 0,-6.00000012 1.19844,0 0,2.39687202 3.596876,0 0,-2.39687202 1.204688,0 0,6.00000012 -6.000004,0 0,0 m 7.276572,0 0,-2.4031281 1.20312,0 0,2.4031281 -1.20312,0 0,0 m 1.20312,-2.4031281 0,-2.398432 1.19844,0 0,2.398432 -1.19844,0 0,0 m 1.19844,-2.398432 0,-1.19844002 1.2,0 0,1.19844002 -1.2,0 0,0 m 1.2,0 1.2,0 0,2.398432 -1.2,0 0,-2.398432 0,0 m 1.2,2.398432 1.19844,0 0,2.4031281 -1.19844,0 0,-2.4031281 0,0 m 2.479688,2.4031281 0,-1.2031281 2.39844,0 0,-3.598432 -2.39844,0 0,-1.19844002 6,0 0,1.19844002 -2.39844,0 0,3.598432 2.39844,0 0,1.2031281 -6,0 0,0 m 7.281248,0 0,-2.4031281 1.2,0 0,2.4031281 -1.2,0 0,0 m 1.2,-2.4031281 0,-2.398432 1.19844,0 0,2.398432 -1.19844,0 0,0 m 1.19844,-2.398432 0,-1.19844002 1.2,0 0,1.19844002 -1.2,0 0,0 m 1.2,0 1.19844,0 0,2.398432 -1.19844,0 0,-2.398432 0,0 m 1.19844,2.398432 1.20312,0 0,2.4031281 -1.20312,0 0,-2.4031281 0,0 m 2.481248,2.4031281 0,-6.00000012 1.20312,0 0,3.59687202 1.19844,0 0,1.2 -1.19844,0 0,1.2031281 -1.20312,0 0,0 m 2.40156,-2.4031281 0,-1.2 1.19844,0 0,1.2 -1.19844,0 0,0 m 1.19844,0 1.2,0 0,-3.59687202 1.2,0 0,6.00000012 -1.2,0 0,-1.2031281 -1.2,0 0,-1.2 0,0 m 3.681248,2.4031281 0,-6.00000012 1.19844,0 0,2.39687202 3.60156,0 0,-2.39687202 1.2,0 0,6.00000012 -6,0 0,0 m 7.279688,0 0,-6.00000012 1.2,0 0,2.39687202 1.2,0 0,1.2 -1.2,0 0,2.4031281 -1.2,0 0,0 m 2.4,-2.4031281 1.19844,0 0,1.2 -1.19844,0 0,-1.2 0,0 m 1.19844,1.2 1.20312,0 0,1.2031281 -1.20312,0 0,-1.2031281 0,0 m -1.19844,-2.4 0,-1.198432 1.19844,0 0,1.198432 -1.19844,0 0,0 m 1.19844,-1.198432 0,-1.19844002 1.20312,0 0,1.19844002 -1.20312,0 0,0 m 2.479688,4.8015601 0,-6.00000012 6,0 0,1.19844002 -4.8,0 0,1.198432 3.60156,0 0,1.2 -3.60156,0 0,1.2 4.8,0 0,1.2031281 -6,0 0,0 m 7.282808,0 0,-6.00000012 1.19844,0 0,2.39687202 2.39844,0 0,-1.198432 1.20312,0 0,1.198432 1.2,0 0,3.6031281 -6,0 0,0 m 4.8,-4.8015601 0,-1.19844002 1.2,0 0,1.19844002 -1.2,0 0,0 m 2.481248,4.8015601 0,-3.6031281 4.79688,0 0,-1.198432 -4.79688,0 0,-1.19844002 6,0 0,3.59687202 -4.80156,0 0,1.2 4.80156,0 0,1.2031281 -6,0 0,0 m 9.999996,0 0,-6.00000012 6,0 0,6.00000012 -6,0 0,0 m 7.27657,0 0,-6.00000012 1.19843,0 0,2.39687202 2.40313,0 0,-1.198432 1.2,0 0,1.198432 1.19844,0 0,3.6031281 -6,0 0,0 m 4.80156,-4.8015601 0,-1.19844002 1.19844,0 0,1.19844002 -1.19844,0 0,0 m 2.47969,4.8015601 0,-6.00000012 6,0 0,3.59687202 -3.60156,0 0,-1.2 2.40156,0 0,-1.198432 -3.6,0 0,3.598432 4.8,0 0,1.2031281 -6,0 0,0 m -87.679692,-1.2031281 3.596876,0 0,-1.2 -3.596876,0 0,1.2 0,0 m 36.398444,0 3.60156,0 0,-1.2 -3.60156,0 0,1.2 0,0 m 20.640624,0 3.60156,0 0,-1.2 -3.60156,0 0,1.2 0,0 m 17.281244,0 3.59844,0 0,-3.598432 -3.59844,0 0,3.598432 0,0 m 7.27656,0 3.60313,0 0,-1.2 -3.60313,0 0,1.2 0,0 m -10.86249,-3.485936 0,-1.08906402 1.09062,0 0,1.08906402 -1.09062,0 0,0"
           id="path4542"
           inkscape:connector-curvature="0" />
      </g>
    </g>
  </g>
</svg>
