<svg xmlns="http://www.w3.org/2000/svg" viewBox="0 0 272.503 184.248">
  <g>
    <g>
      <path d="M40.187 157.033v1.9h3.965v7.594h1.983v-7.594h3.968v-1.9h-9.916"/>
      <path d="M52.077 157.033v9.494h9.915v-1.9h-7.934v-1.9h3.97v-1.893h-3.97v-1.9h7.934v-1.9h-9.916"/>
      <path d="M63.97 157.034v9.493h9.918v-1.9h-7.935v-7.594H63.97"/>
      <path d="M76.307 157.033v9.494h1.982v-3.8h5.95v3.8h1.985v-9.494h-9.918zm1.982 1.9h5.952v1.9H78.29v-1.9z"/>
      <path d="M88.2 157.033v5.695h1.984v-5.695H88.2"/>
      <path d="M90.184 162.728v1.9h1.982v-1.9h-1.982"/>
      <path d="M92.166 164.628v1.9h1.983v-1.9h-1.985"/>
      <path d="M94.148 164.628h1.98v-1.9h-1.98v1.9"/>
      <path d="M96.128 162.728h1.99v-5.695h-1.99v5.695"/>
      <path d="M100.09 157.033v9.494h1.982v-9.494h-1.982"/>
      <path d="M104.04 157.033v5.695h1.982v-5.695h-1.983"/>
      <path d="M106.023 162.728v1.9h1.988v-1.9h-1.987"/>
      <path d="M108.01 164.628v1.9h1.983v-1.9h-1.982"/>
      <path d="M109.993 164.628h1.983v-1.9h-1.983v1.9"/>
      <path d="M111.976 162.728h1.98v-5.695h-1.98v5.695"/>
    </g>
    <g>
      <path d="M125.902 157.038v9.493h1.986v-3.797h5.947v3.8h1.982v-9.493h-1.983v3.798h-5.948v-3.8H125.9"/>
      <path d="M137.793 157.04v9.49h1.98v-3.798h5.954v3.8h1.984v-9.493h-9.917zm1.986 1.9h5.95v1.898h-5.95v-1.9z"/>
      <path d="M149.683 157.04v9.49h9.918v-1.897h-7.93v-5.694h7.93v-1.9h-9.917"/>
      <path d="M161.578 157.04v9.49h1.983v-3.8h3.966v-1.893h-3.965v-3.8h-1.98"/>
      <path d="M167.527 160.837h1.986v-1.9h-1.986v1.9"/>
      <path d="M169.513 158.937h1.983v-1.9h-1.983v1.9"/>
      <path d="M167.527 162.73v1.9h1.986v-1.9h-1.986"/>
      <path d="M169.513 164.63v1.9h1.983v-1.9h-1.983"/>
      <path d="M173.47 157.038v9.49h9.917v-1.897h-7.935v-1.9h3.97v-1.894h-3.97v-1.9h7.935v-1.9h-9.916"/>
      <path d="M185.367 157.037v9.492h1.983v-3.8h3.964v1.9h1.983v-1.9h1.986v-5.693h-9.916zm1.983 1.9h5.947v1.9h-5.947v-1.9z"/>
      <path d="M193.297 164.63v1.9h1.986v-1.898h-1.986"/>
      <path d="M197.257 157.038v5.692h7.934v1.9h-7.934v1.9h9.916v-5.694h-7.933v-1.9h7.933v-1.9h-9.915"/>
      <path d="M209.152 157.037v9.492h1.98v-3.8h7.936v-5.693h-9.916zm1.98 1.9h5.95v1.9h-5.95v-1.9z"/>
      <path d="M221.04 157.037v9.49h1.983v-3.797h5.95v3.8h1.984v-9.493h-9.918zm1.983 1.9h5.952v1.9h-5.952v-1.9z"/>
      <path d="M232.935 157.037v9.49h9.912v-1.897h-7.93v-5.694h7.93v-1.9h-9.912"/>
      <path d="M244.825 157.036v9.49h9.917v-1.897h-7.935v-1.9h3.965v-1.896h-3.965v-1.9h7.936v-1.9h-9.917"/>
    </g>
    <g>
      <path d="M19.264 17.717l-1.547 5.754 6.596 1.348-1.553 5.752 6.597 1.352 1.55-5.752-6.595-1.354 1.55-5.746-6.598-1.353zm10.093 14.205l-1.55 5.752 6.6 1.347 1.548-5.745-6.598-1.353zm5.05 7.1l-1.553 5.75 6.597 1.355L41 40.373l-6.594-1.352zm5.044 7.105l-1.548 5.75 6.592 1.35 1.555-5.752-6.6-1.348zm5.044 7.1l-.9 3.355-7.31.057c-.794 5.292 2.71 9.004 3.782 10.464l11.186-.358 3.336.684-1.55 5.75 6.6 1.353 1.546-5.75-6.594-1.353.213-.8 25.984-.83-1.416 87.84c5.178.18 8.29.302 9.784-.187l.47-87.94 30.47-.974-.026.1 6.596 1.354.45-1.678 55.265-1.77-.335 1.24 6.596 1.355.76-2.818 45.71-1.465-1.174 4.37 6.59 1.353 1.55-5.752-.814-.168 13.52-.476-.567-5.366-17.545.243.36-1.337-6.598-1.346 1.554-5.754-6.595-1.352-1.548 5.755 6.59 1.354-.737 2.735-45.41.358.86-3.186-6.596-1.353 1.544-5.75-6.59-1.346-1.553 5.752 6.6 1.346-1.238 4.59-54.91.43.76-2.823-6.59-1.346 1.545-5.746-6.596-1.354-1.545 5.752 6.595 1.353-1.138 4.224-25.758.203.017-3.233-8.71.977-.04 2.325-30.372.24.524-1.95-6.596-1.35-.002.002zm67.027-8.54l1.554-5.748-6.582-1.35 1.522-5.643-6.594-1.353-1.55 5.752 6.58 1.35-1.518 5.642 6.59 1.348zm113.87.584l1.548-5.75-6.592-1.346-1.553 5.752 6.598 1.345zM59.638 74.534l-1.553 5.748 6.596 1.357-1.547 5.748 6.594 1.35 1.55-5.75-6.597-1.35 1.547-5.75-6.59-1.352zm10.09 14.2l-1.55 5.75 6.594 1.355 1.548-5.752-6.59-1.352zm26.658-65.35l-1.55 5.752 6.59 1.345 1.554-5.746-6.595-1.35zm67.025 6.252l-1.553 5.75 6.598 1.345 1.55-5.746-6.595-1.35zm5.047 7.095l-1.55 5.754 6.6 1.352 1.546-5.75-6.596-1.356zm20.184 28.413l-1.546 5.75 6.59 1.353 1.554-5.752-6.597-1.35zm-61.976.853l-1.553 5.748 6.595 1.35 1.55-5.75-6.59-1.348zm113.863.586l-1.55 5.748 6.6 1.35 1.546-5.75-6.596-1.348zm-46.84 5.664l-1.548 5.748 6.594 1.35 1.55-5.75-6.598-1.348zm-61.98.85l-1.547 5.75 6.592 1.355 1.553-5.753-6.598-1.35zm5.045 7.105l-1.55 5.745 6.6 1.354 1.548-5.75-6.598-1.35z"/>
      <path d="M106.174 149.387h8.115v4.317h-8.117v-4.317"/>
      <path d="M121.75 90.95v2.09h-4.277v60.66h8.125v-25.095h24.34V153.7h8.097V93.04h-4.88v-2.09H121.75zm3.848 12.53h24.34v12.563h-24.34V103.48z"/>
      <path d="M161.247 149.387h8.115v4.317h-8.115v-4.317"/>
      <path d="M172.54 90.93v62.773h8.116v-37.66h8.115v-.01h8.117v.01h8.117v37.66h8.113V90.93h-8.113v12.56h-8.117v2.508h-8.116v-2.508h-8.112V90.93h-8.119zm24.347 25.113h-8.116v3.727h8.117v-3.727z"/>
      <path d="M216.326 148.797h8.115v4.908h-8.113v-4.908"/>
      <path d="M228.836 97.605h8.92v51.192h-8.92v4.907h25.95v-4.907h-8.92V97.605h8.92V90.93h-25.95v6.675z"/>
    </g>
  </g>
</svg>
